<svg xmlns="http://www.w3.org/2000/svg" width="21" height="20" viewBox="0 0 21 20" fill="none">
<g clip-path="url(#clip0_706_1548)">
<path d="M14.7531 14.9505C14.5343 14.9505 14.3244 14.8636 14.1697 14.7088C14.015 14.5541 13.928 14.3442 13.928 14.1254C13.928 13.9066 14.015 13.6967 14.1697 13.5419C14.3244 13.3872 14.5343 13.3003 14.7531 13.3003C16.1179 13.3003 17.2285 12.1897 17.2285 10.8249C17.2285 9.46021 16.1179 8.34961 14.7531 8.34961C14.5568 8.34961 14.3439 8.38426 14.0823 8.4577L13.1986 8.70605L13.0452 7.80008C12.9187 7.03146 12.5232 6.33281 11.9292 5.82889C11.3352 5.32498 10.5814 5.04861 9.80247 5.04916C9.31287 5.0499 8.82956 5.15943 8.38747 5.36981C7.94537 5.5802 7.55556 5.8862 7.24619 6.26568C6.93683 6.64515 6.71566 7.08863 6.59866 7.56405C6.48166 8.03946 6.47176 8.53494 6.56968 9.01465L6.78421 10.0378L5.59935 9.99488C4.76599 9.99983 4.02669 10.74 4.02669 11.6501C4.02669 12.5602 4.76599 13.3003 5.67691 13.3003C5.89575 13.3003 6.10562 13.3872 6.26036 13.5419C6.41509 13.6967 6.50203 13.9066 6.50203 14.1254C6.50203 14.3442 6.41509 14.5541 6.26036 14.7088C6.10562 14.8636 5.89575 14.9505 5.67691 14.9505C3.85754 14.9505 2.37646 13.4703 2.37646 11.6501C2.37736 10.9182 2.62103 10.2074 3.06928 9.62896C3.51753 9.05051 4.14504 8.63712 4.85345 8.45357L4.8518 8.34961C4.8518 5.61931 7.07218 3.39893 9.80247 3.39893C10.8276 3.39716 11.8277 3.71541 12.6633 4.30929C13.4988 4.90317 14.1282 5.74305 14.4635 6.71176C16.877 6.51291 18.8787 8.45439 18.8787 10.8249C18.8787 13.0998 17.028 14.9505 14.7531 14.9505ZM11.1548 11.6501L7.44183 14.9926L9.91716 16.1882L8.6795 19.0761L12.3925 15.7344L9.91716 14.5379L11.1548 11.6501Z" fill="#373839"/>
</g>
<defs>
<clipPath id="clip0_706_1548">
<rect width="19.8027" height="19.8027" fill="white" transform="translate(0.726074 0.0986328)"/>
</clipPath>
</defs>
</svg>