<svg xmlns="http://www.w3.org/2000/svg" width="20" height="20" viewBox="0 0 20 20" fill="none">
<g clip-path="url(#clip0_706_1552)">
<path d="M12.4843 18.2509C12.2654 18.2509 12.0556 18.164 11.9008 18.0093C11.7461 17.8545 11.6592 17.6447 11.6592 17.4258V12.4752C11.6592 12.2563 11.7461 12.0465 11.9008 11.8917C12.0556 11.737 12.2654 11.6501 12.4843 11.6501C12.7031 11.6501 12.913 11.737 13.0677 11.8917C13.2225 12.0465 13.3094 12.2563 13.3094 12.4752V17.4258C13.3094 17.6447 13.2225 17.8545 13.0677 18.0093C12.913 18.164 12.7031 18.2509 12.4843 18.2509ZM7.5336 18.2509C7.31476 18.2509 7.10489 18.164 6.95016 18.0093C6.79542 17.8545 6.70849 17.6447 6.70849 17.4258V12.4752C6.70849 12.2563 6.79542 12.0465 6.95016 11.8917C7.10489 11.737 7.31476 11.6501 7.5336 11.6501C7.75243 11.6501 7.9623 11.737 8.11704 11.8917C8.27178 12.0465 8.35871 12.2563 8.35871 12.4752V17.4258C8.35871 17.6447 8.27178 17.8545 8.11704 18.0093C7.9623 18.164 7.75243 18.2509 7.5336 18.2509ZM10.0089 19.9012C9.7901 19.9012 9.58023 19.8142 9.42549 19.6595C9.27075 19.5048 9.18382 19.2949 9.18382 19.0761V14.1254C9.18382 13.9066 9.27075 13.6967 9.42549 13.5419C9.58023 13.3872 9.7901 13.3003 10.0089 13.3003C10.2278 13.3003 10.4376 13.3872 10.5924 13.5419C10.7471 13.6967 10.834 13.9066 10.834 14.1254V19.0761C10.834 19.2949 10.7471 19.5048 10.5924 19.6595C10.4376 19.8142 10.2278 19.9012 10.0089 19.9012ZM5.05826 14.9505C3.23806 14.9505 1.75781 13.4703 1.75781 11.6501C1.75866 10.9184 2.00221 10.2076 2.4503 9.62917C2.8984 9.05073 3.52571 8.63727 4.23397 8.45357L4.23315 8.3496C4.23315 5.61931 6.45353 3.39893 9.18382 3.39893C10.209 3.39736 11.2091 3.71567 12.0448 4.30951C12.8804 4.90335 13.51 5.74311 13.8457 6.71176C16.2682 6.51043 18.2601 8.45522 18.2601 10.8249C18.2586 11.7269 17.9622 12.6037 17.4161 13.3216C16.87 14.0395 16.1041 14.5591 15.2352 14.8012C15.1297 14.8338 15.0187 14.8448 14.9088 14.8337C14.7989 14.8226 14.6923 14.7896 14.5954 14.7365C14.4986 14.6835 14.4133 14.6115 14.3448 14.5249C14.2762 14.4383 14.2257 14.3388 14.1963 14.2324C14.1669 14.1259 14.1592 14.0146 14.1736 13.9051C14.1881 13.7956 14.2243 13.6901 14.2803 13.5949C14.3362 13.4996 14.4107 13.4166 14.4993 13.3507C14.588 13.2848 14.6889 13.2373 14.7962 13.2112C15.3173 13.0655 15.7765 12.7535 16.1039 12.3227C16.4313 11.892 16.609 11.366 16.6098 10.8249C16.6098 9.4602 15.4992 8.3496 14.1345 8.3496C13.9348 8.3496 13.7228 8.38343 13.4653 8.45687L12.5792 8.70935L12.4265 7.80008C12.3001 7.03146 11.9045 6.33281 11.3105 5.82889C10.7166 5.32498 9.96277 5.04861 9.18382 5.04916C8.694 5.0497 8.21043 5.15915 7.76812 5.36959C7.32581 5.58003 6.93583 5.88618 6.62641 6.2659C6.31698 6.64561 6.09586 7.08937 5.97906 7.56506C5.86225 8.04074 5.85268 8.53645 5.95103 9.01629L6.15566 10.0081L4.98235 9.99488C4.14816 9.99983 3.40804 10.74 3.40804 11.6501C3.40804 12.5602 4.14816 13.3003 5.05826 13.3003C5.27709 13.3003 5.48696 13.3872 5.6417 13.5419C5.79644 13.6967 5.88337 13.9066 5.88337 14.1254C5.88337 14.3442 5.79644 14.5541 5.6417 14.7088C5.48696 14.8636 5.27709 14.9505 5.05826 14.9505Z" fill="#373839"/>
</g>
<defs>
<clipPath id="clip0_706_1552">
<rect width="19.8027" height="19.8027" fill="white" transform="translate(0.107422 0.0986328)"/>
</clipPath>
</defs>
</svg>