<svg xmlns="http://www.w3.org/2000/svg" width="21" height="20" viewBox="0 0 21 20" fill="none">
<path d="M17.7842 12.5861L15.7569 12.1711L16.9806 11.8443C17.0852 11.8163 17.1833 11.7679 17.2693 11.7019C17.3553 11.6359 17.4274 11.5536 17.4816 11.4598C17.5357 11.3659 17.5709 11.2623 17.585 11.1549C17.5991 11.0474 17.592 10.9382 17.5639 10.8336C17.5358 10.7289 17.4874 10.6308 17.4215 10.5448C17.3555 10.4589 17.2732 10.3867 17.1793 10.3326C17.0855 10.2784 16.9819 10.2432 16.8744 10.2291C16.767 10.215 16.6578 10.2222 16.5531 10.2502L15.3089 10.5827C15.3394 10.3921 15.3675 10.1999 15.3675 10.0002C15.3675 9.80054 15.3394 9.60746 15.3089 9.41686L16.5548 9.7502L16.7693 9.77826C16.9695 9.77815 17.1628 9.70529 17.3132 9.57324C17.4636 9.44119 17.5609 9.25897 17.587 9.06051C17.613 8.86205 17.566 8.66089 17.4548 8.4945C17.3435 8.32811 17.1756 8.20784 16.9822 8.15609L15.7586 7.82852L17.7842 7.41431C17.9192 7.38666 18.0457 7.32733 18.1532 7.24121C18.2608 7.1551 18.3463 7.04465 18.4029 6.91899C18.4594 6.79332 18.4852 6.65603 18.4782 6.51842C18.4713 6.38081 18.4317 6.24682 18.3628 6.12749C18.2939 6.00817 18.1977 5.90692 18.082 5.83209C17.9663 5.75726 17.8345 5.711 17.6974 5.6971C17.5603 5.68321 17.4219 5.70208 17.2935 5.75218C17.1652 5.80227 17.0505 5.88214 16.9591 5.98522L15.5869 7.53148L15.9153 6.31114C15.9435 6.20647 15.9508 6.09727 15.9368 5.98979C15.9227 5.8823 15.8877 5.77863 15.8336 5.6847C15.7243 5.49499 15.5442 5.35645 15.3328 5.29955C15.1214 5.24265 14.8961 5.27206 14.7064 5.38131C14.5167 5.49055 14.3781 5.67069 14.3212 5.88208L13.9854 7.13377C13.6837 6.88441 13.3441 6.68471 12.9796 6.54217L13.8889 5.6329C13.9655 5.55629 14.0262 5.46534 14.0677 5.36525C14.1092 5.26516 14.1305 5.15788 14.1305 5.04954C14.1305 4.9412 14.1092 4.83392 14.0677 4.73383C14.0262 4.63374 13.9655 4.54279 13.8889 4.46619C13.8122 4.38958 13.7213 4.32881 13.6212 4.28735C13.5211 4.24589 13.4138 4.22455 13.3055 4.22455C13.1972 4.22455 13.0899 4.24589 12.9898 4.28735C12.8897 4.32881 12.7988 4.38958 12.7221 4.46619L11.8261 5.36226L12.4804 3.39932C12.5234 3.26879 12.5349 3.12992 12.5139 2.9941C12.4928 2.85828 12.4399 2.72939 12.3593 2.61802C12.2788 2.50665 12.173 2.41597 12.0506 2.35344C11.9282 2.29091 11.7927 2.2583 11.6553 2.2583C11.5178 2.2583 11.3824 2.29091 11.26 2.35344C11.1376 2.41597 11.0318 2.50665 10.9512 2.61802C10.8707 2.72939 10.8177 2.85828 10.7967 2.9941C10.7756 3.12992 10.7871 3.26879 10.8302 3.39932L11.4845 5.36226L10.5884 4.46619C10.4337 4.31147 10.2239 4.22455 10.0051 4.22455C9.78625 4.22455 9.57641 4.31147 9.4217 4.46619C9.26698 4.6209 9.18007 4.83074 9.18007 5.04954C9.18007 5.26834 9.26698 5.47818 9.4217 5.6329L10.331 6.54217C9.96667 6.68523 9.62722 6.88488 9.32516 7.13377L8.99099 5.88373C8.96451 5.77746 8.91713 5.67753 8.85163 5.58976C8.78613 5.50199 8.7038 5.42814 8.60947 5.37252C8.51513 5.31689 8.41066 5.2806 8.30215 5.26576C8.19365 5.25093 8.08327 5.25784 7.97746 5.2861C7.87165 5.31436 7.77253 5.3634 7.68587 5.43036C7.59921 5.49732 7.52675 5.58087 7.4727 5.67612C7.41866 5.77138 7.38413 5.87644 7.37111 5.98518C7.35809 6.09392 7.36685 6.20417 7.39687 6.30949L7.72362 7.53478L6.35228 5.98604C6.24478 5.86591 6.10609 5.77792 5.9516 5.73184C5.79712 5.68577 5.63288 5.68342 5.47714 5.72505C5.3214 5.76668 5.18024 5.85066 5.06935 5.96766C4.95845 6.08467 4.88215 6.23012 4.84893 6.38787C4.75239 6.85819 5.05603 7.3186 5.52717 7.41514L7.552 7.83017L6.33083 8.15691C6.13747 8.20866 5.96952 8.32893 5.85826 8.49532C5.747 8.66171 5.70001 8.86287 5.72606 9.06133C5.7521 9.25979 5.8494 9.44202 5.99982 9.57406C6.15025 9.70611 6.34355 9.77898 6.54371 9.77908L6.75824 9.75103L8.00251 9.41768C7.96612 9.60983 7.94597 9.80469 7.94227 10.0002C7.94227 10.1999 7.97033 10.3921 8.00086 10.5836L6.75659 10.2502C6.65192 10.2222 6.54274 10.215 6.4353 10.2291C6.32786 10.2432 6.22425 10.2784 6.13039 10.3326C6.03653 10.3867 5.95426 10.4589 5.88828 10.5448C5.82229 10.6308 5.77389 10.7289 5.74583 10.8336C5.71776 10.9382 5.71059 11.0474 5.72472 11.1549C5.73884 11.2623 5.774 11.3659 5.82817 11.4598C5.88234 11.5536 5.95446 11.6359 6.04043 11.7019C6.12639 11.7679 6.22451 11.8163 6.32918 11.8443L7.55282 12.1719L5.52717 12.5861C5.3686 12.618 5.22209 12.6935 5.10415 12.8041C4.98621 12.9148 4.90153 13.0562 4.85966 13.2125C4.8178 13.3687 4.82041 13.5335 4.86721 13.6883C4.91401 13.8431 5.00312 13.9818 5.12452 14.0886C5.2099 14.1645 5.30942 14.2229 5.41737 14.2603C5.52532 14.2977 5.63959 14.3134 5.75363 14.3066C5.86767 14.2997 5.97925 14.2705 6.08197 14.2205C6.1847 14.1705 6.27655 14.1007 6.35228 14.0152L7.72609 12.4656L7.3977 13.6901C7.36962 13.7948 7.36244 13.904 7.37656 14.0114C7.39068 14.1189 7.42583 14.2225 7.48001 14.3163C7.53418 14.4102 7.60631 14.4925 7.69228 14.5584C7.77825 14.6244 7.87638 14.6728 7.98105 14.7009L8.19558 14.7289C8.37707 14.7288 8.55344 14.6688 8.69738 14.5583C8.84133 14.4477 8.94481 14.2928 8.99182 14.1175L9.32681 12.8675C9.6288 13.1134 9.96297 13.3163 10.3334 13.4583L9.42252 14.3675C9.34592 14.4441 9.28515 14.5351 9.24369 14.6352C9.20223 14.7353 9.18089 14.8425 9.18089 14.9509C9.18089 15.0592 9.20223 15.1665 9.24369 15.2666C9.28515 15.3667 9.34592 15.4576 9.42252 15.5342C9.57724 15.689 9.78708 15.7759 10.0059 15.7759C10.1142 15.7759 10.2215 15.7545 10.3216 15.7131C10.4217 15.6716 10.5126 15.6108 10.5892 15.5342L11.1718 14.9509H11.3797L10.8302 16.6003C10.7871 16.7308 10.7756 16.8697 10.7967 17.0055C10.8177 17.1413 10.8707 17.2702 10.9512 17.3816C11.0318 17.493 11.1376 17.5836 11.26 17.6462C11.3824 17.7087 11.5178 17.7413 11.6553 17.7413C11.7927 17.7413 11.9282 17.7087 12.0506 17.6462C12.173 17.5836 12.2788 17.493 12.3593 17.3816C12.4399 17.2702 12.4928 17.1413 12.5139 17.0055C12.5349 16.8697 12.5234 16.7308 12.4804 16.6003L11.9309 14.9509H12.1388L12.7221 15.5342C12.8769 15.689 13.0867 15.7759 13.3055 15.7759C13.5243 15.7759 13.7341 15.689 13.8889 15.5342C14.0436 15.3795 14.1305 15.1697 14.1305 14.9509C14.1305 14.7321 14.0436 14.5222 13.8889 14.3675L12.9796 13.4574C13.3445 13.3152 13.6844 13.1155 13.9862 12.8658L14.3212 14.1175C14.3682 14.2928 14.4717 14.4477 14.6156 14.5583C14.7596 14.6688 14.936 14.7288 15.1174 14.7289L15.332 14.7009C15.4367 14.6728 15.5348 14.6244 15.6208 14.5584C15.7067 14.4925 15.7789 14.4102 15.833 14.3163C15.8872 14.2225 15.9223 14.1189 15.9365 14.0114C15.9506 13.904 15.9434 13.7948 15.9153 13.6901L15.5878 12.4689L16.9591 14.0152C17.0505 14.1183 17.1652 14.1982 17.2935 14.2483C17.4219 14.2983 17.5603 14.3172 17.6974 14.3033C17.8345 14.2894 17.9663 14.2432 18.082 14.1683C18.1977 14.0935 18.2939 13.9923 18.3628 13.8729C18.4317 13.7536 18.4713 13.6196 18.4782 13.482C18.4852 13.3444 18.4594 13.2071 18.4029 13.0814C18.3463 12.9558 18.2608 12.8453 18.1532 12.7592C18.0457 12.6731 17.9192 12.6138 17.7842 12.5861ZM11.6553 12.063C10.5174 12.063 9.5925 11.138 9.5925 10.0002C9.5925 8.86238 10.5174 7.93743 11.6553 7.93743C12.7931 7.93743 13.7181 8.86238 13.7181 10.0002C13.7181 11.138 12.7931 12.063 11.6553 12.063Z" fill="#373839"/>
</svg>