<svg xmlns="http://www.w3.org/2000/svg" width="21" height="20" viewBox="0 0 21 20" fill="none">
<path d="M12.453 2.57412L11.6279 5.04946L10.8028 2.57412C10.7597 2.4436 10.7482 2.30472 10.7693 2.16891C10.7903 2.03309 10.8433 1.9042 10.9238 1.79283C11.0044 1.68145 11.1102 1.59078 11.2326 1.52824C11.3549 1.46571 11.4904 1.43311 11.6279 1.43311C11.7653 1.43311 11.9008 1.46571 12.0232 1.52824C12.1456 1.59078 12.2514 1.68145 12.3319 1.79283C12.4125 1.9042 12.4654 2.03309 12.4865 2.16891C12.5075 2.30472 12.496 2.4436 12.453 2.57412ZM16.8789 5.09071L14.5446 6.25825L15.7122 3.92401C15.8202 3.72619 16.0008 3.57799 16.2159 3.5106C16.431 3.44321 16.6638 3.46188 16.8654 3.56269C17.067 3.66349 17.2217 3.83857 17.2968 4.05108C17.372 4.26358 17.3618 4.49696 17.2683 4.70209C17.184 4.87036 17.0473 5.00673 16.8789 5.09071ZM18.2288 10.0001L15.7534 9.17502L18.2288 8.34991C18.3595 8.30637 18.4987 8.29452 18.6349 8.31532C18.7711 8.33613 18.9004 8.389 19.0122 8.46957C19.1239 8.55015 19.2149 8.65613 19.2777 8.77878C19.3405 8.90143 19.3732 9.03724 19.3732 9.17502C19.3732 9.3128 19.3405 9.44861 19.2777 9.57126C19.2149 9.69391 19.1239 9.79989 19.0122 9.88046C18.9004 9.96104 18.7711 10.0139 18.6349 10.0347C18.4987 10.0555 18.3595 10.0437 18.2288 10.0001ZM7.54356 3.92401L8.7111 6.25825L6.37685 5.09071C6.2531 5.0293 6.14574 4.93932 6.06365 4.8282C5.98156 4.71708 5.92709 4.58802 5.90476 4.45168C5.88242 4.31535 5.89285 4.17565 5.9352 4.04415C5.97754 3.91264 6.05058 3.79311 6.14827 3.69542C6.24595 3.59773 6.36549 3.52469 6.497 3.48235C6.6285 3.44001 6.7682 3.42957 6.90453 3.45191C7.04087 3.47424 7.16993 3.52871 7.28105 3.6108C7.39217 3.69289 7.48215 3.80025 7.54356 3.92401ZM15.156 10.2823C15.2707 9.93247 15.3409 9.56365 15.3409 9.17502C15.3409 7.12792 13.675 5.46201 11.6279 5.46201C10.5222 5.46201 9.53456 5.95213 8.85796 6.72279L8.73997 6.69968C8.04301 6.70014 7.35406 6.84825 6.71848 7.13426C6.08291 7.42026 5.51513 7.83766 5.05255 8.35898C4.89883 8.30223 4.7322 8.29005 4.57186 8.32387C4.41153 8.35768 4.26401 8.43611 4.1463 8.55011C4.02859 8.66411 3.94548 8.80905 3.90656 8.96822C3.86763 9.12739 3.87446 9.29432 3.92627 9.44978C3.9733 9.58757 4.05664 9.69649 4.15483 9.7889C3.91381 10.3799 3.78968 11.0121 3.7893 11.6504L3.79095 11.7543C3.08254 11.9379 2.45503 12.3513 2.00678 12.9297C1.55853 13.5082 1.31486 14.219 1.31396 14.9508C1.31396 16.771 2.79504 18.2513 4.61441 18.2513H13.6906C15.9655 18.2513 17.8162 16.4005 17.8162 14.1257C17.8162 12.369 16.7073 10.8756 15.156 10.2823ZM11.6279 7.11224C12.7657 7.11224 13.6906 8.03719 13.6906 9.17502C13.6906 9.47701 13.6114 9.75755 13.4943 10.0158C13.2022 10.0331 12.9002 10.0769 12.5718 10.1709C12.3596 9.61914 12.0311 9.11948 11.6087 8.70589C11.1863 8.2923 10.6798 7.97447 10.1237 7.77398C10.3152 7.56591 10.5477 7.39971 10.8066 7.28583C11.0654 7.17195 11.3451 7.11284 11.6279 7.11224ZM13.6906 16.601H4.61441C3.70349 16.601 2.96419 15.8609 2.96419 14.9508C2.96419 14.0407 3.70349 13.3006 4.5385 13.2956L5.71181 13.3088L5.50718 12.317C5.40899 11.8372 5.41867 11.3416 5.53554 10.8659C5.65241 10.3903 5.87354 9.94662 6.18293 9.56695C6.49232 9.18728 6.88224 8.88112 7.32448 8.67064C7.76671 8.46015 8.2502 8.3506 8.73997 8.34991L8.79691 8.33836C9.555 8.3565 10.2839 8.63437 10.8617 9.12549C11.4394 9.61661 11.8311 10.2912 11.9711 11.0365L12.0025 11.1899C12.0513 11.3592 12.1538 11.5081 12.2946 11.614C12.4354 11.72 12.6068 11.7773 12.783 11.7774L13.0215 11.7584C13.2789 11.6842 13.491 11.6504 13.6906 11.6504C15.0554 11.6504 16.166 12.761 16.166 14.1257C16.166 15.4904 15.0554 16.601 13.6906 16.601Z" fill="#373839"/>
</svg>