<svg xmlns="http://www.w3.org/2000/svg" width="21" height="20" viewBox="0 0 21 20" fill="none">
<path d="M14.3723 14.9505C14.1535 14.9505 13.9436 14.8636 13.7888 14.7088C13.6341 14.5541 13.5472 14.3442 13.5472 14.1254C13.5472 13.9066 13.6341 13.6967 13.7888 13.5419C13.9436 13.3872 14.1535 13.3003 14.3723 13.3003C15.737 13.3003 16.8476 12.1897 16.8476 10.8249C16.8476 9.46021 15.737 8.34961 14.3723 8.34961C14.1718 8.34961 13.9597 8.38343 13.7039 8.45687L12.817 8.71018L12.6643 7.80008C12.5379 7.03146 12.1423 6.33281 11.5483 5.82889C10.9543 5.32498 10.2006 5.04861 9.42162 5.04916C8.93154 5.04963 8.44771 5.15912 8.00518 5.3697C7.56266 5.58028 7.17252 5.88668 6.86305 6.26668C6.55359 6.64668 6.33253 7.09078 6.21592 7.56677C6.09931 8.04277 6.09005 8.53875 6.18883 9.01877L6.39015 10.0081L5.21849 9.99488C4.38596 9.99983 3.64583 10.74 3.64583 11.6501C3.64583 12.5602 4.38596 13.3003 5.29605 13.3003C5.51489 13.3003 5.72476 13.3872 5.8795 13.5419C6.03424 13.6967 6.12117 13.9066 6.12117 14.1254C6.12117 14.3442 6.03424 14.5541 5.8795 14.7088C5.72476 14.8636 5.51489 14.9505 5.29605 14.9505C3.47586 14.9505 1.99561 13.4703 1.99561 11.6501C1.99646 10.9184 2.24001 10.2076 2.6881 9.62917C3.13619 9.05073 3.7635 8.63727 4.47177 8.45357L4.47094 8.34961C4.47094 5.61931 6.69132 3.39893 9.42162 3.39893C10.4468 3.39723 11.447 3.7155 12.2827 4.30936C13.1184 4.90321 13.7479 5.74305 14.0835 6.71176C16.5085 6.51043 18.4978 8.45522 18.4978 10.8249C18.4978 13.0998 16.6471 14.9505 14.3723 14.9505ZM9.00906 14.9505L9.83417 12.4752L10.6593 14.9505C10.7023 15.081 10.7138 15.2199 10.6928 15.3557C10.6717 15.4915 10.6188 15.6204 10.5382 15.7318C10.4577 15.8432 10.3519 15.9338 10.2295 15.9964C10.1071 16.0589 9.97161 16.0915 9.83417 16.0915C9.69673 16.0915 9.56125 16.0589 9.43886 15.9964C9.31647 15.9338 9.21066 15.8432 9.13012 15.7318C9.04959 15.6204 8.99662 15.4915 8.97557 15.3557C8.95453 15.2199 8.966 15.081 9.00906 14.9505ZM11.4844 16.6007L12.3095 14.1254L13.1346 16.6007C13.1777 16.7312 13.1891 16.8701 13.1681 17.0059C13.1471 17.1418 13.0941 17.2707 13.0136 17.382C12.933 17.4934 12.8272 17.5841 12.7048 17.6466C12.5824 17.7091 12.4469 17.7417 12.3095 17.7417C12.1721 17.7417 12.0366 17.7091 11.9142 17.6466C11.7918 17.5841 11.686 17.4934 11.6055 17.382C11.5249 17.2707 11.472 17.1418 11.4509 17.0059C11.4299 16.8701 11.4413 16.7312 11.4844 16.6007ZM6.53372 16.6007L7.35883 14.1254L8.18395 16.6007C8.227 16.7312 8.23848 16.8701 8.21743 17.0059C8.19639 17.1418 8.14342 17.2707 8.06288 17.382C7.98234 17.4934 7.87653 17.5841 7.75414 17.6466C7.63175 17.7091 7.49627 17.7417 7.35883 17.7417C7.22139 17.7417 7.08592 17.7091 6.96352 17.6466C6.84113 17.5841 6.73532 17.4934 6.65479 17.382C6.57425 17.2707 6.52128 17.1418 6.50024 17.0059C6.47919 16.8701 6.49067 16.7312 6.53372 16.6007Z" fill="#373839"/>
</svg>