<svg xmlns="http://www.w3.org/2000/svg" width="21" height="20" viewBox="0 0 21 20" fill="none">
<path d="M4.92292 13.0943C4.80925 13.0947 4.69678 13.0711 4.59288 13.025C4.00487 12.7675 3.5046 12.3444 3.15321 11.8072C2.80183 11.27 2.61455 10.6421 2.61426 10.0001C2.61511 9.26845 2.85866 8.55771 3.30675 7.97927C3.75484 7.40082 4.38216 6.98736 5.09042 6.80366L5.08959 6.6997C5.08959 3.9694 7.30997 1.74903 10.0403 1.74903C11.2095 1.74751 12.3412 2.16167 13.2333 2.91754C14.1253 3.67342 14.7196 4.72179 14.9101 5.87541C14.9464 6.09118 14.8955 6.31253 14.7686 6.49078C14.6417 6.66903 14.4492 6.78959 14.2335 6.82594C14.0179 6.86067 13.7974 6.80916 13.6195 6.68255C13.4416 6.55593 13.3207 6.3644 13.283 6.14935C13.1564 5.38088 12.7607 4.68242 12.1668 4.17867C11.5728 3.67492 10.8191 3.39868 10.0403 3.39925C9.55004 3.39957 9.06602 3.50899 8.62332 3.71957C8.18062 3.93014 7.79034 4.2366 7.48076 4.61672C7.17118 4.99683 6.95008 5.44108 6.83349 5.91724C6.71689 6.3934 6.70773 6.88955 6.80665 7.36969L7.02036 8.41758L5.83962 8.34497C5.00461 8.34993 4.26448 9.09005 4.26448 10.0001C4.26448 10.6561 4.65311 11.2502 5.25462 11.5134C5.42823 11.5894 5.57036 11.7229 5.65714 11.8914C5.74392 12.0599 5.77005 12.2531 5.73113 12.4386C5.69221 12.6241 5.59062 12.7906 5.44344 12.91C5.29625 13.0294 5.11245 13.0945 4.92292 13.0943ZM16.6412 5.87459C16.4223 5.87459 16.2125 5.96152 16.0577 6.11626C15.903 6.271 15.8161 6.48087 15.8161 6.6997C15.8161 6.91853 15.903 7.1284 16.0577 7.28314C16.2125 7.43788 16.4223 7.52481 16.6412 7.52481C16.86 7.52481 17.0699 7.61174 17.2246 7.76648C17.3793 7.92122 17.4663 8.13109 17.4663 8.34992C17.4663 8.56876 17.3793 8.77863 17.2246 8.93337C17.0699 9.0881 16.86 9.17504 16.6412 9.17504H8.72009C8.50125 9.17504 8.29138 9.26197 8.13665 9.41671C7.98191 9.57144 7.89498 9.78131 7.89498 10.0001C7.89498 10.219 7.98191 10.4289 8.13665 10.5836C8.29138 10.7383 8.50125 10.8253 8.72009 10.8253H12.5156C12.7344 10.8253 12.9443 10.9122 13.099 11.0669C13.2538 11.2217 13.3407 11.4315 13.3407 11.6504C13.3407 11.8692 13.2538 12.0791 13.099 12.2338C12.9443 12.3886 12.7344 12.4755 12.5156 12.4755H8.39004C7.02531 12.4755 5.91471 13.5861 5.91471 14.9508C5.91471 16.3156 7.02531 17.4262 8.39004 17.4262C8.60888 17.4262 8.81875 17.3392 8.97348 17.1845C9.12822 17.0298 9.21516 16.8199 9.21516 16.601C9.21516 16.3822 9.12822 16.1723 8.97348 16.0176C8.81875 15.8629 8.60888 15.7759 8.39004 15.7759C8.17121 15.7759 7.96134 15.689 7.8066 15.5343C7.65186 15.3795 7.56493 15.1697 7.56493 14.9508C7.56493 14.732 7.65186 14.5221 7.8066 14.3674C7.96134 14.2126 8.17121 14.1257 8.39004 14.1257H12.5156C13.8803 14.1257 14.9909 13.0151 14.9909 11.6504C14.9909 11.3591 14.9315 11.0843 14.8383 10.8253H16.6412C18.0059 10.8253 19.1165 9.71466 19.1165 8.34992C19.1165 6.98519 18.0059 5.87459 16.6412 5.87459Z" fill="#373839"/>
</svg>