<svg xmlns="http://www.w3.org/2000/svg" width="17" height="18" viewBox="0 0 17 18" fill="none">
<path d="M6.2779 13.1254C6.49674 13.1254 6.70661 13.2123 6.86135 13.3671C7.01609 13.5218 7.10302 13.7317 7.10302 13.9505C7.10302 14.1693 7.01609 14.3792 6.86135 14.5339C6.70661 14.6887 6.49674 14.7756 6.2779 14.7756C6.05907 14.7756 5.8492 14.6887 5.69446 14.5339C5.53972 14.3792 5.45279 14.1693 5.45279 13.9505C5.45279 13.7317 5.53972 13.5218 5.69446 13.3671C5.8492 13.2123 6.05907 13.1254 6.2779 13.1254ZM13.2897 7.3496C13.8368 7.3496 14.3615 7.56693 14.7483 7.95377C15.1352 8.34062 15.3525 8.8653 15.3525 9.41238C15.3525 9.95946 15.1352 10.4841 14.7483 10.871C14.3615 11.2578 13.8368 11.4752 13.2897 11.4752L13.2468 11.4735L13.1527 11.4809L12.5405 11.4801C12.6329 11.7037 12.6841 11.9488 12.6841 12.2062C12.6872 12.4645 12.6386 12.7209 12.5413 12.9601C12.4439 13.1994 12.2997 13.4169 12.1172 13.5996C11.9346 13.7824 11.7174 13.9269 11.4782 14.0246C11.239 14.1222 10.9828 14.1711 10.7244 14.1683C9.89685 14.1683 9.28874 13.802 8.96694 13.198C8.89343 13.0595 8.87526 12.8982 8.91608 12.7468C8.95691 12.5954 9.05371 12.4651 9.1869 12.3823C9.32009 12.2995 9.47974 12.2704 9.63358 12.3008C9.78743 12.3312 9.92399 12.4189 10.0157 12.5462L10.0982 12.6806C10.2104 12.8407 10.3952 12.9307 10.7253 12.9307C10.821 12.9334 10.9163 12.9165 11.0052 12.8811C11.0942 12.8456 11.1749 12.7923 11.2425 12.7244C11.3101 12.6565 11.363 12.5755 11.3981 12.4864C11.4332 12.3973 11.4496 12.3019 11.4464 12.2062C11.4464 11.8432 11.1477 11.5337 10.75 11.4917L10.5726 11.4809H2.77118C2.61439 11.4809 2.46346 11.4213 2.34889 11.3143C2.23432 11.2072 2.16466 11.0607 2.15397 10.9043C2.14329 10.7479 2.19237 10.5932 2.29132 10.4716C2.39026 10.3499 2.53169 10.2704 2.68702 10.249L2.77118 10.2433H13.1527L13.1923 10.2449L13.241 10.2391L13.3862 10.2317C13.5276 10.2148 13.6622 10.1615 13.777 10.0771C13.8917 9.9927 13.9826 9.88006 14.0409 9.75011C14.0991 9.62017 14.1228 9.47736 14.1095 9.33557C14.0962 9.19378 14.0465 9.05783 13.9651 8.94097C13.8837 8.8241 13.7735 8.73028 13.6451 8.66865C13.5167 8.60701 13.3746 8.57965 13.2325 8.58923C13.0904 8.59881 12.9532 8.645 12.8343 8.72332C12.7153 8.80163 12.6187 8.90939 12.5537 9.03613L12.4794 9.20693C12.4063 9.34578 12.2832 9.45167 12.1349 9.50315C11.9866 9.55463 11.8244 9.54786 11.6809 9.48421C11.5375 9.42056 11.4236 9.30478 11.3623 9.16031C11.3009 9.01585 11.2968 8.85348 11.3507 8.70608C11.4958 8.30847 11.7597 7.96508 12.1066 7.72244C12.4534 7.47981 12.8664 7.34965 13.2897 7.3496ZM8.33903 3.21991C9.07515 3.21796 9.78422 3.49718 10.3214 4.00052C10.8585 4.50386 11.1832 5.19332 11.229 5.92801C11.2748 6.6627 11.0383 7.38716 10.5679 7.95335C10.0975 8.51953 9.42861 8.88471 8.69796 8.97424L8.61545 8.99075L8.53046 8.9957H2.77118C2.61439 8.99565 2.46346 8.93609 2.34889 8.82905C2.23432 8.72201 2.16466 8.57547 2.15397 8.41904C2.14329 8.26262 2.19237 8.10797 2.29132 7.98634C2.39026 7.86471 2.53169 7.78518 2.68702 7.7638L2.77118 7.75803H8.33986C8.66624 7.75803 8.9853 7.66124 9.25668 7.47992C9.52805 7.29859 9.73957 7.04086 9.86447 6.73932C9.98937 6.43778 10.022 6.10597 9.95837 5.78586C9.8947 5.46575 9.73753 5.17171 9.50674 4.94092C9.27596 4.71013 8.98191 4.55296 8.6618 4.48929C8.34169 4.42562 8.00988 4.45829 7.70835 4.5832C7.40681 4.7081 7.14908 4.91961 6.96775 5.19099C6.78642 5.46237 6.68964 5.78142 6.68964 6.1078C6.68964 6.27193 6.62444 6.42933 6.50838 6.54539C6.39233 6.66144 6.23493 6.72664 6.0708 6.72664C5.90668 6.72664 5.74927 6.66144 5.63322 6.54539C5.51717 6.42933 5.45197 6.27193 5.45197 6.1078C5.45197 5.34189 5.75623 4.60734 6.29781 4.06576C6.8394 3.52417 7.57312 3.21991 8.33903 3.21991ZM2.97746 3.22404C3.19629 3.22404 3.40616 3.31097 3.5609 3.46571C3.71564 3.62045 3.80257 3.83032 3.80257 4.04915C3.80257 4.26798 3.71564 4.47785 3.5609 4.63259C3.40616 4.78733 3.19629 4.87426 2.97746 4.87426C2.75862 4.87426 2.54875 4.78733 2.39401 4.63259C2.23927 4.47785 2.15234 4.26798 2.15234 4.04915C2.15234 3.83032 2.23927 3.62045 2.39401 3.46571C2.54875 3.31097 2.75862 3.22404 2.97746 3.22404ZM14.529 2.39893C14.7479 2.39893 14.9577 2.48586 15.1125 2.6406C15.2672 2.79533 15.3541 3.0052 15.3541 3.22404C15.3541 3.44287 15.2672 3.65274 15.1125 3.80748C14.9577 3.96222 14.7479 4.04915 14.529 4.04915C14.3102 4.04915 14.1003 3.96222 13.9456 3.80748C13.7908 3.65274 13.7039 3.44287 13.7039 3.22404C13.7039 3.0052 13.7908 2.79533 13.9456 2.6406C14.1003 2.48586 14.3102 2.39893 14.529 2.39893Z" fill="#373839"/>
</svg>