<svg xmlns="http://www.w3.org/2000/svg" width="21" height="20" viewBox="0 0 21 20" fill="none">
<path d="M11.3087 3.39885L10.4836 5.81973L9.65852 3.39885C9.61403 3.26774 9.60143 3.12791 9.62176 2.99095C9.64209 2.85399 9.69476 2.72385 9.77542 2.61131C9.85607 2.49877 9.96239 2.40707 10.0855 2.34381C10.2087 2.28055 10.3452 2.24756 10.4836 2.24756C10.6221 2.24756 10.7586 2.28055 10.8817 2.34381C11.0049 2.40707 11.1112 2.49877 11.1919 2.61131C11.2725 2.72385 11.3252 2.85399 11.3455 2.99095C11.3658 3.12791 11.3532 3.26774 11.3087 3.39885ZM3.88274 9.17464L6.30362 9.99975L3.88274 10.8249C3.75162 10.8694 3.61179 10.882 3.47484 10.8616C3.33788 10.8413 3.20774 10.7886 3.0952 10.708C2.98266 10.6273 2.89096 10.521 2.8277 10.3978C2.76444 10.2747 2.73145 10.1382 2.73145 9.99975C2.73145 9.86129 2.76444 9.72483 2.8277 9.60166C2.89096 9.4785 2.98266 9.37219 3.0952 9.29153C3.20774 9.21088 3.33788 9.1582 3.47484 9.13787C3.61179 9.11754 3.75162 9.13015 3.88274 9.17464ZM9.65852 16.6006L10.4836 14.1798L11.3087 16.6006C11.3532 16.7318 11.3658 16.8716 11.3455 17.0085C11.3252 17.1455 11.2725 17.2756 11.1919 17.3882C11.1112 17.5007 11.0049 17.5924 10.8817 17.6557C10.7586 17.7189 10.6221 17.7519 10.4836 17.7519C10.3452 17.7519 10.2087 17.7189 10.0855 17.6557C9.96239 17.5924 9.85607 17.5007 9.77542 17.3882C9.69476 17.2756 9.64209 17.1455 9.62176 17.0085C9.60143 16.8716 9.61403 16.7318 9.65852 16.6006ZM17.0845 10.8232L14.6637 9.9981L17.0845 9.17299C17.2156 9.1285 17.3555 9.11589 17.4924 9.13622C17.6294 9.15655 17.7595 9.20923 17.8721 9.28988C17.9846 9.37054 18.0763 9.47685 18.1396 9.60001C18.2028 9.72318 18.2358 9.85964 18.2358 9.9981C18.2358 10.1366 18.2028 10.273 18.1396 10.3962C18.0763 10.5193 17.9846 10.6257 17.8721 10.7063C17.7595 10.787 17.6294 10.8396 17.4924 10.86C17.3555 10.8803 17.2156 10.8677 17.0845 10.8232ZM6.39933 4.74874L7.52726 7.04337L5.23262 5.91544C5.10792 5.85443 4.99959 5.76453 4.91663 5.65321C4.83368 5.5419 4.77849 5.41239 4.75566 5.27545C4.73284 5.13851 4.74303 4.99811 4.7854 4.8659C4.82776 4.7337 4.90107 4.61352 4.99924 4.51535C5.0974 4.41719 5.21759 4.34388 5.34979 4.30151C5.48199 4.25915 5.6224 4.24895 5.75934 4.27178C5.89627 4.2946 6.02578 4.34979 6.1371 4.43275C6.24841 4.5157 6.33831 4.62404 6.39933 4.74874ZM5.23262 14.0832L7.52726 12.9553L6.39933 15.2499C6.33831 15.3746 6.24841 15.483 6.1371 15.5659C6.02578 15.6489 5.89627 15.7041 5.75934 15.7269C5.6224 15.7497 5.48199 15.7395 5.34979 15.6972C5.21759 15.6548 5.0974 15.5815 4.99924 15.4833C4.90107 15.3852 4.82776 15.265 4.7854 15.1328C4.74303 15.0006 4.73284 14.8602 4.75566 14.7232C4.77849 14.5863 4.83368 14.4568 4.91663 14.3455C4.99959 14.2341 5.10792 14.1442 5.23262 14.0832ZM14.5671 15.2499L13.4392 12.9553L15.7338 14.0832C15.8585 14.1442 15.9669 14.2341 16.0498 14.3455C16.1328 14.4568 16.188 14.5863 16.2108 14.7232C16.2336 14.8602 16.2234 15.0006 16.181 15.1328C16.1387 15.265 16.0654 15.3852 15.9672 15.4833C15.869 15.5815 15.7489 15.6548 15.6167 15.6972C15.4845 15.7395 15.344 15.7497 15.2071 15.7269C15.0702 15.7041 14.9407 15.6489 14.8293 15.5659C14.718 15.483 14.6281 15.3746 14.5671 15.2499ZM15.733 5.91379L13.4375 7.04255L14.5663 4.74708C14.6273 4.62239 14.7172 4.51405 14.8285 4.4311C14.9398 4.34814 15.0693 4.29295 15.2063 4.27013C15.3432 4.2473 15.4836 4.2575 15.6158 4.29986C15.748 4.34223 15.8682 4.41554 15.9664 4.5137C16.0645 4.61187 16.1379 4.73205 16.1802 4.86425C16.2226 4.99646 16.2328 5.13686 16.21 5.2738C16.1871 5.41074 16.1319 5.54025 16.049 5.65156C15.966 5.76288 15.8577 5.85278 15.733 5.91379ZM10.4836 13.7128C8.43653 13.7128 6.77063 12.0469 6.77063 9.99975C6.77063 7.95265 8.43653 6.28674 10.4836 6.28674C12.5307 6.28674 14.1966 7.95265 14.1966 9.99975C14.1966 12.0469 12.5307 13.7128 10.4836 13.7128ZM10.4836 7.93697C9.34581 7.93697 8.42086 8.86192 8.42086 9.99975C8.42086 11.1376 9.34581 12.0625 10.4836 12.0625C11.6215 12.0625 12.5464 11.1376 12.5464 9.99975C12.5464 8.86192 11.6215 7.93697 10.4836 7.93697Z" fill="#373839"/>
</svg>